<svg width="746" height="845" xmlns="http://www.w3.org/2000/svg" xmlns:xlink="http://www.w3.org/1999/xlink" xml:space="preserve" overflow="hidden"><defs><clipPath id="clip0"><rect x="2813" y="959" width="746" height="845"/></clipPath><linearGradient x1="3605.24" y1="1011.38" x2="2766.76" y2="1751.62" gradientUnits="userSpaceOnUse" spreadMethod="reflect" id="fill1"><stop offset="0" stop-color="#FF4D00"/><stop offset="0.0133333" stop-color="#FF4E00"/><stop offset="0.0266667" stop-color="#FF5000"/><stop offset="0.04" stop-color="#FF5200"/><stop offset="0.0533333" stop-color="#FF5400"/><stop offset="0.0666667" stop-color="#FF5600"/><stop offset="0.08" stop-color="#FF5700"/><stop offset="0.0933333" stop-color="#FF5900"/><stop offset="0.106667" stop-color="#FF5B00"/><stop offset="0.12" stop-color="#FF5D00"/><stop offset="0.133333" stop-color="#FF5E00"/><stop offset="0.146667" stop-color="#FF6000"/><stop offset="0.16" stop-color="#FF6200"/><stop offset="0.173333" stop-color="#FF6300"/><stop offset="0.186667" stop-color="#FF6500"/><stop offset="0.2" stop-color="#FF6600"/><stop offset="0.213333" stop-color="#FF6800"/><stop offset="0.226667" stop-color="#FF6A00"/><stop offset="0.24" stop-color="#FF6B00"/><stop offset="0.253333" stop-color="#FF6D00"/><stop offset="0.266667" stop-color="#FF6E00"/><stop offset="0.28" stop-color="#FF6F00"/><stop offset="0.293333" stop-color="#FF7100"/><stop offset="0.306667" stop-color="#FF7200"/><stop offset="0.32" stop-color="#FF7400"/><stop offset="0.333333" stop-color="#FF7500"/><stop offset="0.346667" stop-color="#FF7600"/><stop offset="0.36" stop-color="#FF7800"/><stop offset="0.373333" stop-color="#FF7900"/><stop offset="0.386667" stop-color="#FF7A00"/><stop offset="0.4" stop-color="#FF7B00"/><stop offset="0.413333" stop-color="#FF7D00"/><stop offset="0.426667" stop-color="#FF7E00"/><stop offset="0.44" stop-color="#FF7F00"/><stop offset="0.453333" stop-color="#FF8000"/><stop offset="0.466667" stop-color="#FF8100"/><stop offset="0.48" stop-color="#FF8200"/><stop offset="0.493333" stop-color="#FF8300"/><stop offset="0.506667" stop-color="#FF8400"/><stop offset="0.52" stop-color="#FF8500"/><stop offset="0.533333" stop-color="#FF8600"/><stop offset="0.546667" stop-color="#FF8700"/><stop offset="0.56" stop-color="#FF8800"/><stop offset="0.573333" stop-color="#FF8900"/><stop offset="0.586667" stop-color="#FF8A00"/><stop offset="0.6" stop-color="#FF8B00"/><stop offset="0.613333" stop-color="#FF8C00"/><stop offset="0.626667" stop-color="#FF8D00"/><stop offset="0.64" stop-color="#FF8D00"/><stop offset="0.653333" stop-color="#FF8E00"/><stop offset="0.666667" stop-color="#FF8F00"/><stop offset="0.68" stop-color="#FF9000"/><stop offset="0.693333" stop-color="#FF9000"/><stop offset="0.706667" stop-color="#FF9100"/><stop offset="0.72" stop-color="#FF9200"/><stop offset="0.733333" stop-color="#FF9200"/><stop offset="0.746667" stop-color="#FF9300"/><stop offset="0.76" stop-color="#FF9300"/><stop offset="0.773333" stop-color="#FF9400"/><stop offset="0.786667" stop-color="#FF9400"/><stop offset="0.8" stop-color="#FF9500"/><stop offset="0.813333" stop-color="#FF9500"/><stop offset="0.826667" stop-color="#FF9600"/><stop offset="0.84" stop-color="#FF9600"/><stop offset="0.853333" stop-color="#FF9600"/><stop offset="0.866667" stop-color="#FF9700"/><stop offset="0.88" stop-color="#FF9700"/><stop offset="0.893333" stop-color="#FF9700"/><stop offset="0.906667" stop-color="#FF9800"/><stop offset="0.92" stop-color="#FF9800"/><stop offset="0.933333" stop-color="#FF9800"/><stop offset="0.946667" stop-color="#FF9800"/><stop offset="0.96" stop-color="#FF9800"/><stop offset="0.973333" stop-color="#FF9800"/><stop offset="0.986667" stop-color="#FF9800"/><stop offset="1" stop-color="#FF9900"/></linearGradient></defs><g clip-path="url(#clip0)" transform="translate(-2813 -959)"><path d="M3071.72 1580.36C3083.46 1580.36 3093.07 1589.95 3093.07 1601.67 3093.07 1613.4 3083.46 1622.99 3071.72 1622.99 3059.98 1622.99 3050.37 1613.4 3050.37 1601.67 3050.37 1589.95 3059.98 1580.36 3071.72 1580.36ZM3064.6 1541.27 3058.38 1553.71C3054.46 1554.78 3050.73 1556.37 3047.35 1558.33L3034.01 1553.89 3023.87 1564.01 3028.32 1577.34C3026.36 1580.89 3024.76 1584.62 3023.69 1588.53L3011.24 1594.57 3011.24 1608.78 3023.69 1615C3024.76 1618.91 3026.36 1622.64 3028.32 1626.01L3023.87 1639.34 3034.01 1649.46 3047.35 1645.02C3050.91 1646.97 3054.64 1648.57 3058.56 1649.64L3064.78 1662.07 3079.01 1662.07 3085.24 1649.64C3089.15 1648.57 3092.89 1646.97 3096.27 1645.02L3109.61 1649.46 3119.75 1639.34 3115.3 1626.01C3117.26 1622.46 3118.86 1618.73 3119.93 1614.82L3132.38 1608.6 3132.38 1594.39 3119.75 1588.35C3118.68 1584.44 3117.08 1580.71 3115.12 1577.34L3119.57 1564.01 3109.43 1553.89 3096.09 1558.33C3092.53 1556.37 3088.8 1554.78 3084.88 1553.71L3078.83 1541.27ZM3072.43 1525.13C3115.24 1525.13 3149.95 1559.79 3149.95 1602.55 3149.95 1645.3 3115.24 1679.96 3072.43 1679.96 3029.62 1679.96 2994.91 1645.3 2994.91 1602.55 2994.91 1559.79 3029.62 1525.13 3072.43 1525.13ZM3424.89 1482.41C3432.67 1482.41 3439.04 1488.77 3439.04 1496.54 3439.04 1504.31 3432.67 1510.67 3424.89 1510.67 3417.11 1510.67 3410.74 1504.31 3410.74 1496.54 3410.74 1488.77 3417.11 1482.41 3424.89 1482.41ZM3420.17 1456.51 3416.05 1464.75C3413.45 1465.46 3410.98 1466.52 3408.74 1467.81L3399.9 1464.87 3393.18 1471.58 3396.12 1480.41C3394.83 1482.76 3393.77 1485.24 3393.06 1487.83L3384.81 1491.83 3384.81 1501.25 3393.06 1505.37C3393.77 1507.96 3394.83 1510.43 3396.12 1512.67L3393.18 1521.5 3399.9 1528.21 3408.74 1525.27C3411.1 1526.56 3413.57 1527.62 3416.17 1528.33L3420.29 1536.57 3429.72 1536.57 3433.85 1528.33C3436.44 1527.62 3438.92 1526.56 3441.16 1525.27L3450 1528.21 3456.72 1521.5 3453.77 1512.67C3455.07 1510.32 3456.13 1507.84 3456.84 1505.25L3465.09 1501.13 3465.09 1491.71 3456.72 1487.71C3456.01 1485.12 3454.95 1482.65 3453.66 1480.41L3456.6 1471.58 3449.88 1464.87 3441.04 1467.81C3438.68 1466.52 3436.21 1465.46 3433.61 1464.75L3429.61 1456.51ZM3424.38 1439.22C3456.96 1439.22 3483.36 1465.59 3483.36 1498.12 3483.36 1530.65 3456.96 1557.02 3424.38 1557.02 3391.81 1557.02 3365.41 1530.65 3365.41 1498.12 3365.41 1465.59 3391.81 1439.22 3424.38 1439.22ZM2949.66 1421.22C3004.54 1421.22 3030.36 1441.84 3048.92 1452.14L3053.88 1454.49 3053.88 1492.86 3049.92 1493.26C2999.02 1503.66 2960.73 1548.64 2960.73 1602.55 2960.73 1656.46 2999.02 1701.44 3049.92 1711.84L3071.54 1714.02 3082.61 1763.25 3079.79 1764C3051.63 1774.13 3008.84 1804 2959.13 1804 2878.42 1804 2813 1737.48 2813 1737.48L2813 1509.13C2813 1509.13 2863.57 1421.22 2949.66 1421.22ZM3189.08 1398.98C3241.05 1398.98 3280.37 1425.4 3304.77 1433.03L3310.17 1434.03 3347.18 1464.77 3346.84 1465.41C3342.58 1475.46 3340.22 1486.52 3340.22 1498.12 3340.22 1544.54 3377.9 1582.17 3424.38 1582.17 3447.63 1582.17 3468.67 1572.77 3483.9 1557.56L3492.17 1547.54 3548.92 1574.82 3545.08 1578.24C3520.14 1597.68 3461.1 1629.32 3420.42 1656.03 3373.94 1686.54 3298.62 1752.74 3212.53 1767.14 3184.45 1771.82 3145.41 1763.8 3116.16 1761.17L3110.3 1760.84 3099 1710.58 3115.91 1705.34C3156.01 1688.41 3184.14 1648.76 3184.14 1602.55 3184.14 1548.64 3145.85 1503.66 3094.94 1493.26L3081.42 1491.9 3081.42 1448.39 3091.85 1439.24C3111.74 1421.98 3142 1398.98 3189.08 1398.98ZM3304.76 995.741 3309.17 999.205C3347.25 1033.03 3452.62 1177.95 3499.73 1305.6 3537.42 1407.71 3557.92 1495.74 3559 1540.9L3558.54 1548.92 3504.41 1522.89 3506.84 1515.06C3507.96 1509.59 3508.55 1503.93 3508.55 1498.12 3508.55 1451.7 3470.87 1414.07 3424.38 1414.07 3401.14 1414.07 3380.1 1423.48 3364.87 1438.69L3362.42 1441.66 3329.72 1414.5 3328.57 1396.49C3325.89 1379.66 3320.51 1360.29 3316.8 1345.03 3309.38 1314.52 3307.76 1226.93 3304.21 1187.5 3301.1 1152.99 3264.14 1113.54 3240.53 1095.73L3235.56 1092.34ZM3134.2 959.009C3176.09 959.349 3234.82 969.16 3272.81 981.303L3279.49 983.74 3203.82 1089.38 3192.88 1094.51C3187.43 1096.76 3180.82 1098.89 3172.29 1100.24 3138.18 1105.61 3080.72 1112.17 3055 1067.36 3037.03 1035.98 3095.89 961.614 3112.35 959.895 3118.85 959.223 3126.22 958.944 3134.2 959.009Z" fill="url(#fill1)" fill-rule="evenodd"/></g></svg>