<svg width="856" height="845" xmlns="http://www.w3.org/2000/svg" xmlns:xlink="http://www.w3.org/1999/xlink" xml:space="preserve" overflow="hidden"><defs><clipPath id="clip0"><rect x="53" y="959" width="856" height="845"/></clipPath><linearGradient x1="903.464" y1="953.536" x2="58.5351" y2="1809.46" gradientUnits="userSpaceOnUse" spreadMethod="reflect" id="fill1"><stop offset="0" stop-color="#007BFF"/><stop offset="0.00763359" stop-color="#007CFF"/><stop offset="0.0152672" stop-color="#007EFF"/><stop offset="0.0229008" stop-color="#0080FF"/><stop offset="0.0305344" stop-color="#0082FF"/><stop offset="0.0381679" stop-color="#0084FF"/><stop offset="0.0458015" stop-color="#0086FF"/><stop offset="0.0534351" stop-color="#0087FF"/><stop offset="0.0610687" stop-color="#0089FF"/><stop offset="0.0687023" stop-color="#008BFF"/><stop offset="0.0763359" stop-color="#008DFF"/><stop offset="0.0839695" stop-color="#008FFF"/><stop offset="0.0916031" stop-color="#0090FF"/><stop offset="0.0992366" stop-color="#0092FF"/><stop offset="0.10687" stop-color="#0094FF"/><stop offset="0.114504" stop-color="#0095FF"/><stop offset="0.122137" stop-color="#0097FF"/><stop offset="0.129771" stop-color="#0099FF"/><stop offset="0.137405" stop-color="#009AFF"/><stop offset="0.145038" stop-color="#009CFF"/><stop offset="0.152672" stop-color="#009EFF"/><stop offset="0.160305" stop-color="#009FFF"/><stop offset="0.167939" stop-color="#00A1FF"/><stop offset="0.175573" stop-color="#00A3FF"/><stop offset="0.183206" stop-color="#00A4FF"/><stop offset="0.19084" stop-color="#00A6FF"/><stop offset="0.198473" stop-color="#00A7FF"/><stop offset="0.206107" stop-color="#00A9FF"/><stop offset="0.21374" stop-color="#00AAFF"/><stop offset="0.221374" stop-color="#00ACFF"/><stop offset="0.229008" stop-color="#00ADFF"/><stop offset="0.236641" stop-color="#00AFFF"/><stop offset="0.244275" stop-color="#00B0FF"/><stop offset="0.251908" stop-color="#00B2FF"/><stop offset="0.259542" stop-color="#00B3FF"/><stop offset="0.267176" stop-color="#00B5FF"/><stop offset="0.274809" stop-color="#00B6FF"/><stop offset="0.282443" stop-color="#00B8FF"/><stop offset="0.290076" stop-color="#00B9FF"/><stop offset="0.29771" stop-color="#00BAFF"/><stop offset="0.305344" stop-color="#00BCFF"/><stop offset="0.312977" stop-color="#00BDFF"/><stop offset="0.320611" stop-color="#00BFFF"/><stop offset="0.328244" stop-color="#00C0FF"/><stop offset="0.335878" stop-color="#00C1FF"/><stop offset="0.343511" stop-color="#00C3FF"/><stop offset="0.351145" stop-color="#00C4FF"/><stop offset="0.358779" stop-color="#00C5FF"/><stop offset="0.366412" stop-color="#00C6FF"/><stop offset="0.374046" stop-color="#00C8FF"/><stop offset="0.381679" stop-color="#00C9FF"/><stop offset="0.389313" stop-color="#00CAFF"/><stop offset="0.396947" stop-color="#00CBFF"/><stop offset="0.40458" stop-color="#00CDFF"/><stop offset="0.412214" stop-color="#00CEFF"/><stop offset="0.419847" stop-color="#00CFFF"/><stop offset="0.427481" stop-color="#00D0FF"/><stop offset="0.435115" stop-color="#00D1FF"/><stop offset="0.442748" stop-color="#00D2FF"/><stop offset="0.450382" stop-color="#00D4FF"/><stop offset="0.458015" stop-color="#00D5FF"/><stop offset="0.465649" stop-color="#00D6FF"/><stop offset="0.473282" stop-color="#00D7FF"/><stop offset="0.480916" stop-color="#00D8FF"/><stop offset="0.48855" stop-color="#00D9FF"/><stop offset="0.496183" stop-color="#00DAFF"/><stop offset="0.503817" stop-color="#00DBFF"/><stop offset="0.51145" stop-color="#00DCFF"/><stop offset="0.519084" stop-color="#00DDFF"/><stop offset="0.526718" stop-color="#00DEFF"/><stop offset="0.534351" stop-color="#00DFFF"/><stop offset="0.541985" stop-color="#00E0FF"/><stop offset="0.549618" stop-color="#00E1FF"/><stop offset="0.557252" stop-color="#00E2FF"/><stop offset="0.564885" stop-color="#00E3FF"/><stop offset="0.572519" stop-color="#00E4FF"/><stop offset="0.580153" stop-color="#00E5FF"/><stop offset="0.587786" stop-color="#00E5FF"/><stop offset="0.59542" stop-color="#00E6FF"/><stop offset="0.603053" stop-color="#00E7FF"/><stop offset="0.610687" stop-color="#00E8FF"/><stop offset="0.618321" stop-color="#00E9FF"/><stop offset="0.625954" stop-color="#00EAFF"/><stop offset="0.633588" stop-color="#00EAFF"/><stop offset="0.641221" stop-color="#00EBFF"/><stop offset="0.648855" stop-color="#00ECFF"/><stop offset="0.656489" stop-color="#00EDFF"/><stop offset="0.664122" stop-color="#00EDFF"/><stop offset="0.671756" stop-color="#00EEFF"/><stop offset="0.679389" stop-color="#00EFFF"/><stop offset="0.687023" stop-color="#00F0FF"/><stop offset="0.694656" stop-color="#00F0FF"/><stop offset="0.70229" stop-color="#00F1FF"/><stop offset="0.709924" stop-color="#00F2FF"/><stop offset="0.717557" stop-color="#00F2FF"/><stop offset="0.725191" stop-color="#00F3FF"/><stop offset="0.732824" stop-color="#00F3FF"/><stop offset="0.740458" stop-color="#00F4FF"/><stop offset="0.748092" stop-color="#00F5FF"/><stop offset="0.755725" stop-color="#00F5FF"/><stop offset="0.763359" stop-color="#00F6FF"/><stop offset="0.770992" stop-color="#00F6FF"/><stop offset="0.778626" stop-color="#00F7FF"/><stop offset="0.78626" stop-color="#00F7FF"/><stop offset="0.793893" stop-color="#00F8FF"/><stop offset="0.801527" stop-color="#00F8FF"/><stop offset="0.80916" stop-color="#00F9FF"/><stop offset="0.816794" stop-color="#00F9FF"/><stop offset="0.824427" stop-color="#00F9FF"/><stop offset="0.832061" stop-color="#00FAFF"/><stop offset="0.839695" stop-color="#00FAFF"/><stop offset="0.847328" stop-color="#00FBFF"/><stop offset="0.854962" stop-color="#00FBFF"/><stop offset="0.862595" stop-color="#00FBFF"/><stop offset="0.870229" stop-color="#00FCFF"/><stop offset="0.877863" stop-color="#00FCFF"/><stop offset="0.885496" stop-color="#00FCFF"/><stop offset="0.89313" stop-color="#00FDFF"/><stop offset="0.900763" stop-color="#00FDFF"/><stop offset="0.908397" stop-color="#00FDFF"/><stop offset="0.916031" stop-color="#00FDFF"/><stop offset="0.923664" stop-color="#00FDFF"/><stop offset="0.931298" stop-color="#00FEFF"/><stop offset="0.938931" stop-color="#00FEFF"/><stop offset="0.946565" stop-color="#00FEFF"/><stop offset="0.954198" stop-color="#00FEFF"/><stop offset="0.961832" stop-color="#00FEFF"/><stop offset="0.969466" stop-color="#00FEFF"/><stop offset="0.977099" stop-color="#00FEFF"/><stop offset="0.984733" stop-color="#00FEFF"/><stop offset="0.992366" stop-color="#00FEFF"/><stop offset="1" stop-color="#00FFFF"/></linearGradient></defs><g clip-path="url(#clip0)" transform="translate(-53 -959)"><path d="M617.399 1624.41C633.086 1624.41 645.802 1637.12 645.802 1652.8 645.802 1668.48 633.086 1681.19 617.399 1681.19 601.713 1681.19 588.996 1668.48 588.996 1652.8 588.996 1637.12 601.713 1624.41 617.399 1624.41ZM660.311 1515.43C675.998 1515.43 688.715 1528.15 688.715 1543.83 688.715 1559.5 675.998 1572.22 660.311 1572.22 644.625 1572.22 631.908 1559.5 631.908 1543.83 631.908 1528.15 644.625 1515.43 660.311 1515.43ZM253.7 1445.72C265.747 1447.03 276.424 1455.36 280.126 1467.7 280.128 1467.7 280.128 1467.7 280.129 1467.7 285.07 1484.15 275.735 1501.49 259.279 1506.43 242.825 1511.36 225.481 1502.03 220.541 1485.59 215.6 1469.14 224.935 1451.8 241.39 1446.86 241.395 1446.86 241.399 1446.86 241.404 1446.86 245.516 1445.62 249.684 1445.28 253.7 1445.72ZM234.766 1389.28 214.952 1395.23 211.526 1415.35C206.588 1418.46 202.044 1422.15 197.994 1426.35L177.517 1425.77 167.684 1444.03 179.39 1460.66C178.156 1466.39 177.623 1472.25 177.802 1478.11L162.877 1491.95 168.827 1511.76 188.972 1515.25C192.041 1520.24 195.707 1524.84 199.89 1528.95L199.421 1549.38 217.602 1559.17 234.4 1547.51C240.097 1548.8 245.931 1549.38 251.77 1549.25L265.748 1564.01 285.528 1558.01 288.953 1537.91C293.949 1534.84 298.551 1531.16 302.657 1526.98L323.054 1527.58 332.886 1509.32 321.136 1492.66C322.415 1486.96 322.996 1481.13 322.872 1475.3L337.717 1461.29 331.768 1441.5 311.656 1438.07C308.543 1433.07 304.831 1428.47 300.602 1424.37L301.208 1403.99 282.936 1394.15 266.251 1405.89C260.514 1404.61 254.642 1404.04 248.767 1404.19ZM760.332 1368.68C776.018 1368.68 788.735 1381.39 788.735 1397.07 788.735 1412.75 776.018 1425.46 760.332 1425.46 744.645 1425.46 731.929 1412.75 731.929 1397.07 731.929 1381.39 744.645 1368.68 760.332 1368.68ZM299.826 1266.62C311.878 1267.93 322.558 1276.27 326.263 1288.6 326.263 1288.6 326.263 1288.6 326.263 1288.6 331.202 1305.05 321.865 1322.39 305.41 1327.32 288.954 1332.26 271.612 1322.93 266.673 1306.48 261.734 1290.03 271.072 1272.69 287.526 1267.76 291.64 1266.52 295.81 1266.18 299.826 1266.62ZM281.063 1210.13 261.214 1216.13 257.72 1236.25C252.743 1239.33 248.16 1242.99 244.073 1247.18L223.677 1246.56 213.684 1264.93 225.619 1281.65C224.349 1287.34 223.782 1293.17 223.928 1299L209.082 1313.01 215.02 1332.8 235.142 1336.23C238.247 1341.17 241.949 1345.71 246.163 1349.75L245.398 1370.37 263.67 1380.2 280.355 1368.45C286.052 1369.74 291.885 1370.32 297.724 1370.19L311.737 1385.03 331.539 1379.08 335.044 1358.9C339.983 1355.78 344.527 1352.08 348.577 1347.88L368.973 1348.5 378.806 1330.23 367.089 1313.58C368.437 1307.82 369.074 1301.91 368.985 1296L383.831 1281.98 377.88 1262.19 357.758 1258.76C354.653 1253.82 350.953 1249.28 346.739 1245.24L347.367 1224.76 329.095 1214.92 312.398 1226.63C306.705 1225.35 300.876 1224.76 295.04 1224.88ZM655.702 1191.97C671.388 1191.97 684.105 1204.68 684.105 1220.36 684.105 1236.04 671.388 1248.75 655.702 1248.75 640.015 1248.75 627.299 1236.04 627.299 1220.36 627.299 1204.68 640.015 1191.97 655.702 1191.97ZM611.895 959.288C675.654 955.08 730.752 1003.34 734.96 1067.07 735.999 1067.34 737.035 1067.64 738.066 1067.95 796.13 1085.28 829.138 1146.39 811.794 1204.43 815.102 1206.06 818.341 1207.82 821.502 1209.72 884.312 1247.48 904.611 1328.99 866.838 1391.77 893.809 1417.86 909.026 1453.78 909 1491.29 908.993 1545.56 877.332 1594.85 827.964 1617.44L827.964 1618.58C827.981 1627.84 826.986 1637.08 824.995 1646.13 809.909 1714.67 742.086 1758.02 673.51 1742.94 662.215 1779.35 628.471 1804.12 590.336 1804 542.404 1803.85 503.669 1764.88 503.82 1716.97L503.82 1664.58 573.681 1664.58 574.924 1670.73C581.922 1687.27 598.305 1698.88 617.399 1698.88 642.859 1698.88 663.497 1678.25 663.497 1652.8 663.497 1627.35 642.859 1606.72 617.399 1606.72 598.305 1606.72 581.922 1618.32 574.924 1634.86L573.851 1640.17 503.82 1640.17 503.82 1343.44 601.817 1409.51 602.26 1408.85 648.522 1408.85 648.522 1500.13 642.368 1501.37C625.822 1508.36 614.213 1524.74 614.213 1543.83 614.213 1569.27 634.852 1589.9 660.311 1589.9 685.771 1589.9 706.41 1569.27 706.41 1543.83 706.41 1524.74 694.8 1508.36 678.255 1501.37L672.943 1500.3 672.943 1408.85 716.614 1408.85 717.856 1415.01C724.854 1431.54 741.237 1443.15 760.332 1443.15 785.791 1443.15 806.43 1422.52 806.43 1397.07 806.43 1371.62 785.791 1350.99 760.332 1350.99 741.237 1350.99 724.854 1362.59 717.856 1379.13L716.784 1384.44 604.748 1384.44 503.82 1316.4 503.82 1232.14 611.983 1232.14 613.226 1238.29C620.224 1254.83 636.608 1266.44 655.702 1266.44 681.161 1266.44 701.8 1245.81 701.8 1220.36 701.8 1194.91 681.161 1174.28 655.702 1174.28 636.608 1174.28 620.224 1185.88 613.226 1202.42L612.153 1207.73 503.82 1207.73 503.82 1074.76C503.779 1013.82 551.06 963.301 611.895 959.288ZM342.376 959C342.384 959 342.391 959 342.399 959 406.328 959.007 458.147 1010.81 458.14 1074.72L458.14 1716.97C458.229 1755.05 433.469 1788.73 397.091 1800.03 351.314 1814.24 302.679 1788.66 288.463 1742.91 279.442 1744.88 270.233 1745.87 260.999 1745.86 190.782 1745.75 133.951 1688.76 134.065 1618.57 134.065 1618.19 134.065 1617.82 134.065 1617.43 118.366 1610.26 104.143 1600.23 92.127 1587.84 38.8053 1532.88 40.1502 1445.12 95.1342 1391.82 93.2131 1388.63 91.4269 1385.36 89.7821 1382.02 57.3948 1316.31 84.43 1236.8 150.167 1204.43 149.85 1203.37 149.55 1202.31 149.267 1201.24 133.661 1142.71 168.48 1082.62 227.035 1067.02 231.044 1006.28 281.478 959.048 342.376 959Z" fill="url(#fill1)" fill-rule="evenodd"/></g></svg>