<svg width="264" height="299" xmlns="http://www.w3.org/2000/svg" xmlns:xlink="http://www.w3.org/1999/xlink" xml:space="preserve" overflow="hidden"><defs><clipPath id="clip0"><rect x="2518" y="494" width="264" height="299"/></clipPath></defs><g clip-path="url(#clip0)" transform="translate(-2518 -494)"><path d="M2608 793 2518 755.497 2518 531.504 2608 494 2608 793Z" fill="#FFFFFF" fill-rule="evenodd"/><path d="M2699.87 569 2699.87 611.988 2622 611.988 2622 667.012 2699.87 667.012 2699.87 710 2782 639.5 2699.87 569Z" fill="#FFFFFF" fill-rule="evenodd"/><path d="M2658.59 598 2679 598 2679 529 2622 529 2622 549.7 2658.59 549.7 2658.59 598Z" fill="#FFFFFF" fill-rule="evenodd"/><path d="M2658.59 681 2658.59 735.546 2622 735.546 2622 756 2679 756 2679 681 2658.59 681Z" fill="#FFFFFF" fill-rule="evenodd"/></g></svg>